<svg xmlns="http://www.w3.org/2000/svg" width="220" height="220" viewBox="0 0 220 220">
  <defs>
    <pattern id="cell" width="22" height="22" patternUnits="userSpaceOnUse">
      <rect x="2" y="2" width="18" height="18" fill="#9a7a32" opacity="0.55"/>
    </pattern>
  </defs>
  <g fill="#c95c36" opacity="0.55">
    <rect x="24" y="12"  width="14" height="14" rx="2"/>
    <rect x="62" y="28"  width="10" height="10" rx="2"/>
    <rect x="98" y="6"   width="18" height="18" rx="3"/>
    <rect x="146" y="22" width="12" height="12" rx="2"/>
    <rect x="184" y="40" width="14" height="14" rx="2"/>
    <rect x="14"  y="58" width="12" height="12" rx="2"/>
    <rect x="50"  y="74" width="20" height="20" rx="3"/>
    <rect x="110" y="60" width="14" height="14" rx="2"/>
    <rect x="156" y="86" width="10" height="10" rx="2"/>
    <rect x="190" y="102" width="14" height="14" rx="2"/>
    <rect x="22"  y="124" width="18" height="18" rx="3"/>
    <rect x="76"  y="140" width="12" height="12" rx="2"/>
    <rect x="122" y="120" width="16" height="16" rx="2"/>
    <rect x="166" y="148" width="14" height="14" rx="2"/>
    <rect x="40"  y="180" width="14" height="14" rx="2"/>
    <rect x="92"  y="190" width="20" height="20" rx="3"/>
    <rect x="148" y="184" width="12" height="12" rx="2"/>
    <rect x="190" y="170" width="14" height="14" rx="2"/>
  </g>
  <g fill="#78733d" opacity="0.50">
    <rect x="44" y="32" width="10" height="10" rx="2"/>
    <rect x="124" y="34" width="12" height="12" rx="2"/>
    <rect x="172" y="64" width="14" height="14" rx="2"/>
    <rect x="84" y="100" width="12" height="12" rx="2"/>
    <rect x="138" y="98" width="10" height="10" rx="2"/>
    <rect x="200" y="138" width="10" height="10" rx="2"/>
    <rect x="60" y="158" width="14" height="14" rx="2"/>
    <rect x="116" y="160" width="10" height="10" rx="2"/>
    <rect x="20" y="200" width="12" height="12" rx="2"/>
    <rect x="74" y="48"  width="10" height="10" rx="2"/>
  </g>
  <g fill="#e5d5b8" opacity="0.40">
    <rect x="100" y="42" width="6" height="6"/>
    <rect x="34" y="98" width="8" height="8"/>
    <rect x="180" y="124" width="6" height="6"/>
    <rect x="128" y="170" width="8" height="8"/>
    <rect x="58" y="118" width="6" height="6"/>
    <rect x="200" y="84"  width="8" height="8"/>
    <rect x="160" y="130" width="6" height="6"/>
  </g>
</svg>
